<svg xmlns="http://www.w3.org/2000/svg" xmlns:xlink="http://www.w3.org/1999/xlink" width="500" zoomAndPan="magnify" viewBox="0 0 375 374.999991" height="500" preserveAspectRatio="xMidYMid meet" version="1.0"><defs><clipPath id="d462ea8295"><path d="M 13.277344 8.90625 L 362.027344 8.90625 L 362.027344 357.65625 L 13.277344 357.65625 Z M 13.277344 8.90625 " clip-rule="nonzero"/></clipPath></defs><path fill="#ffffff" d="M 172.160156 140.277344 L 156.9375 140.96875 L 132.949219 162.589844 L 130.972656 162.316406 C 121.820312 161.054688 119.660156 153.652344 123.863281 146.597656 L 124.183594 146.058594 L 149.085938 123.136719 L 149.984375 122.847656 C 153.59375 121.6875 157.996094 121.257812 161.769531 120.976562 C 166.699219 120.605469 171.671875 120.488281 176.617188 120.441406 C 181.246094 120.398438 185.875 120.429688 190.503906 120.464844 C 192.609375 120.480469 194.714844 120.496094 196.820312 120.496094 L 199.742188 120.5 L 200.8125 123.214844 C 202.199219 126.734375 204.328125 129.558594 207.695312 131.375 C 215.171875 135.414062 227.269531 133.484375 235.480469 132.339844 C 237.246094 132.09375 239.011719 131.851562 240.78125 131.640625 C 241.355469 131.570312 241.925781 131.503906 242.5 131.445312 C 243.039062 131.390625 244.125 131.34375 244.625 131.074219 C 245.144531 130.792969 245.738281 129.984375 246.101562 129.550781 C 246.515625 129.054688 246.933594 128.5625 247.359375 128.074219 L 262.097656 111.132812 L 263.289062 110.777344 C 267.4375 109.53125 271.636719 110.074219 274.707031 113.316406 C 276.53125 115.242188 277.613281 117.804688 278.140625 120.378906 L 278.59375 122.613281 L 249.234375 152.511719 L 215.929688 153.292969 L 194.5 201.761719 L 219.472656 225.4375 L 219.542969 227.179688 C 219.65625 230.023438 219.351562 233.042969 218.972656 235.859375 C 217.636719 245.726562 214.734375 256.664062 211.015625 265.929688 C 208.710938 271.667969 203.804688 283.320312 196.675781 284.101562 C 195.875 284.1875 196 284.199219 195.15625 284.085938 C 189.796875 283.363281 185.160156 280.277344 183.15625 275.167969 L 182.582031 273.707031 L 196.128906 233.597656 L 167.992188 211.382812 L 157.300781 238.804688 L 156.65625 239.445312 C 147.726562 248.316406 137.308594 255.734375 125.921875 261.121094 C 120.597656 263.644531 114.394531 266.066406 108.597656 267.324219 L 107.949219 267.464844 L 107.285156 267.402344 C 96.371094 266.371094 94.808594 257.367188 98.523438 249.039062 L 99.292969 247.300781 L 101.101562 246.707031 C 112.167969 243.066406 125.246094 237.417969 133.648438 229.046875 C 135.988281 226.71875 139.265625 222.679688 139.957031 219.304688 L 140.039062 218.914062 L 172.160156 140.277344 " fill-opacity="1" fill-rule="evenodd"/><path fill="#ffffff" d="M 202.855469 103.316406 C 202.855469 97.753906 205.046875 92.457031 208.980469 88.523438 C 212.914062 84.585938 218.210938 82.394531 223.773438 82.394531 C 229.339844 82.394531 234.632812 84.585938 238.570312 88.523438 C 242.503906 92.457031 244.695312 97.753906 244.695312 103.316406 C 244.695312 108.878906 242.503906 114.175781 238.570312 118.109375 C 234.632812 122.042969 229.339844 124.238281 223.773438 124.238281 C 218.210938 124.238281 212.914062 122.042969 208.980469 118.109375 C 205.046875 114.175781 202.855469 108.878906 202.855469 103.316406 " fill-opacity="1" fill-rule="evenodd"/><g clip-path="url(#d462ea8295)"><path fill="#ffffff" d="M 187.652344 8.90625 C 283.558594 8.90625 362.027344 87.375 362.027344 183.28125 C 362.027344 279.191406 283.558594 357.65625 187.652344 357.65625 C 91.746094 357.65625 13.277344 279.191406 13.277344 183.28125 C 13.277344 87.375 91.746094 8.90625 187.652344 8.90625 Z M 187.652344 28.222656 C 102.367188 28.222656 32.59375 98 32.59375 183.28125 C 32.59375 268.566406 102.367188 338.34375 187.652344 338.34375 C 272.933594 338.34375 342.710938 268.566406 342.710938 183.28125 C 342.710938 98 272.933594 28.222656 187.652344 28.222656 " fill-opacity="1" fill-rule="evenodd"/></g></svg>