<svg xmlns="http://www.w3.org/2000/svg" xmlns:xlink="http://www.w3.org/1999/xlink" width="500" zoomAndPan="magnify" viewBox="0 0 375 374.999991" height="500" preserveAspectRatio="xMidYMid meet" version="1.0"><defs><clipPath id="900a2d08ba"><path d="M 29.9375 29.9375 L 344.9375 29.9375 L 344.9375 344.9375 L 29.9375 344.9375 Z M 29.9375 29.9375 " clip-rule="nonzero"/></clipPath><clipPath id="fb1ba87082"><path d="M 13.277344 13.277344 L 362.027344 13.277344 L 362.027344 362.027344 L 13.277344 362.027344 Z M 13.277344 13.277344 " clip-rule="nonzero"/></clipPath></defs><g clip-path="url(#900a2d08ba)"><path fill="#2e303e" d="M 187.4375 29.9375 C 100.453125 29.9375 29.9375 100.453125 29.9375 187.4375 C 29.9375 274.421875 100.453125 344.9375 187.4375 344.9375 C 274.421875 344.9375 344.9375 274.421875 344.9375 187.4375 C 344.9375 100.453125 274.421875 29.9375 187.4375 29.9375 " fill-opacity="1" fill-rule="nonzero"/></g><path fill="#e97131" d="M 172.160156 144.648438 L 156.9375 145.339844 L 132.949219 166.957031 L 130.972656 166.683594 C 121.820312 165.421875 119.660156 158.023438 123.863281 150.964844 L 124.183594 150.429688 L 149.085938 127.503906 L 149.984375 127.21875 C 153.59375 126.054688 157.996094 125.628906 161.769531 125.34375 C 166.699219 124.976562 171.671875 124.859375 176.617188 124.8125 C 181.246094 124.769531 185.875 124.796875 190.503906 124.832031 C 192.609375 124.847656 194.714844 124.863281 196.820312 124.867188 L 199.742188 124.867188 L 200.8125 127.585938 C 202.199219 131.105469 204.328125 133.925781 207.695312 135.742188 C 215.171875 139.78125 227.269531 137.855469 235.480469 136.710938 C 237.246094 136.464844 239.011719 136.222656 240.78125 136.007812 C 241.355469 135.941406 241.925781 135.875 242.5 135.816406 C 243.039062 135.761719 244.125 135.714844 244.625 135.445312 C 245.144531 135.164062 245.738281 134.351562 246.101562 133.921875 C 246.515625 133.425781 246.933594 132.933594 247.359375 132.445312 L 262.097656 115.503906 L 263.289062 115.148438 C 267.4375 113.898438 271.636719 114.445312 274.707031 117.6875 C 276.53125 119.613281 277.613281 122.175781 278.140625 124.75 L 278.59375 126.984375 L 249.234375 156.882812 L 215.929688 157.660156 L 194.5 206.128906 L 219.472656 229.804688 L 219.542969 231.546875 C 219.65625 234.390625 219.351562 237.410156 218.972656 240.226562 C 217.636719 250.097656 214.734375 261.035156 211.015625 270.300781 C 208.710938 276.039062 203.804688 287.691406 196.675781 288.472656 C 195.875 288.558594 196 288.570312 195.15625 288.457031 C 189.796875 287.734375 185.160156 284.648438 183.15625 279.535156 L 182.582031 278.078125 L 196.128906 237.964844 L 167.992188 215.753906 L 157.300781 243.175781 L 156.65625 243.816406 C 147.726562 252.6875 137.308594 260.105469 125.921875 265.492188 C 120.597656 268.011719 114.394531 270.4375 108.597656 271.695312 L 107.949219 271.832031 L 107.285156 271.773438 C 96.371094 270.738281 94.808594 261.738281 98.523438 253.40625 L 99.292969 251.671875 L 101.101562 251.078125 C 112.167969 247.433594 125.246094 241.785156 133.648438 233.417969 C 135.988281 231.085938 139.265625 227.050781 139.957031 223.675781 L 140.039062 223.285156 L 172.160156 144.648438 " fill-opacity="1" fill-rule="evenodd"/><path fill="#e97131" d="M 202.855469 107.6875 C 202.855469 102.121094 205.046875 96.824219 208.980469 92.890625 C 212.914062 88.957031 218.210938 86.765625 223.773438 86.765625 C 229.339844 86.765625 234.632812 88.957031 238.570312 92.890625 C 242.503906 96.824219 244.695312 102.121094 244.695312 107.6875 C 244.695312 113.25 242.503906 118.546875 238.570312 122.480469 C 234.632812 126.414062 229.339844 128.605469 223.773438 128.605469 C 218.210938 128.605469 212.914062 126.414062 208.980469 122.480469 C 205.046875 118.546875 202.855469 113.25 202.855469 107.6875 " fill-opacity="1" fill-rule="evenodd"/><g clip-path="url(#fb1ba87082)"><path fill="#e97131" d="M 187.652344 13.277344 C 283.558594 13.277344 362.027344 91.746094 362.027344 187.652344 C 362.027344 283.558594 283.558594 362.027344 187.652344 362.027344 C 91.746094 362.027344 13.277344 283.558594 13.277344 187.652344 C 13.277344 91.746094 91.746094 13.277344 187.652344 13.277344 Z M 187.652344 32.59375 C 102.367188 32.59375 32.59375 102.367188 32.59375 187.652344 C 32.59375 272.9375 102.367188 342.710938 187.652344 342.710938 C 272.933594 342.710938 342.710938 272.9375 342.710938 187.652344 C 342.710938 102.367188 272.933594 32.59375 187.652344 32.59375 " fill-opacity="1" fill-rule="evenodd"/></g></svg>