<svg xmlns="http://www.w3.org/2000/svg" xmlns:xlink="http://www.w3.org/1999/xlink" width="1000" zoomAndPan="magnify" viewBox="0 0 750 262.499992" height="350" preserveAspectRatio="xMidYMid meet" version="1.0"><defs><g/><clipPath id="a1eed38d89"><path d="M 30.316406 2.65625 L 287.078125 2.65625 L 287.078125 259.414062 L 30.316406 259.414062 Z M 30.316406 2.65625 " clip-rule="nonzero"/></clipPath></defs><path fill="#2094f3" d="M 147.292969 99.375 L 136.085938 99.882812 L 118.421875 115.800781 L 116.96875 115.597656 C 110.230469 114.667969 108.640625 109.222656 111.734375 104.027344 L 111.96875 103.628906 L 130.304688 86.753906 L 130.964844 86.542969 C 133.621094 85.6875 136.863281 85.371094 139.640625 85.164062 C 143.269531 84.890625 146.933594 84.804688 150.574219 84.769531 C 153.980469 84.738281 157.386719 84.761719 160.796875 84.785156 C 162.347656 84.796875 163.898438 84.808594 165.449219 84.808594 L 167.597656 84.8125 L 168.386719 86.8125 C 169.40625 89.402344 170.976562 91.480469 173.453125 92.816406 C 178.960938 95.792969 187.867188 94.371094 193.910156 93.53125 C 195.210938 93.347656 196.511719 93.171875 197.8125 93.015625 C 198.234375 92.964844 198.65625 92.914062 199.078125 92.871094 C 199.476562 92.832031 200.277344 92.796875 200.644531 92.597656 C 201.023438 92.390625 201.460938 91.792969 201.730469 91.476562 C 202.035156 91.109375 202.34375 90.75 202.65625 90.390625 L 213.507812 77.917969 L 214.382812 77.65625 C 217.4375 76.738281 220.527344 77.136719 222.789062 79.523438 C 224.132812 80.941406 224.929688 82.828125 225.316406 84.722656 L 225.652344 86.371094 L 204.035156 108.382812 L 179.515625 108.957031 L 163.738281 144.640625 L 182.125 162.070312 L 182.175781 163.351562 C 182.261719 165.445312 182.035156 167.667969 181.757812 169.742188 C 180.773438 177.011719 178.636719 185.0625 175.898438 191.882812 C 174.203125 196.109375 170.589844 204.6875 165.339844 205.261719 C 164.753906 205.324219 164.84375 205.335938 164.222656 205.25 C 160.277344 204.71875 156.863281 202.445312 155.386719 198.683594 L 154.964844 197.609375 L 164.9375 168.078125 L 144.222656 151.722656 L 136.351562 171.914062 L 135.875 172.382812 C 129.304688 178.917969 121.632812 184.378906 113.25 188.34375 C 109.328125 190.199219 104.761719 191.984375 100.496094 192.910156 L 100.015625 193.011719 L 99.527344 192.96875 C 91.492188 192.207031 90.34375 185.582031 93.078125 179.445312 L 93.644531 178.167969 L 94.976562 177.730469 C 103.121094 175.050781 112.753906 170.890625 118.9375 164.726562 C 120.660156 163.011719 123.074219 160.042969 123.582031 157.554688 L 123.640625 157.269531 L 147.292969 99.375 " fill-opacity="1" fill-rule="evenodd"/><path fill="#2094f3" d="M 169.890625 72.164062 C 169.890625 68.066406 171.503906 64.164062 174.402344 61.269531 C 177.296875 58.371094 181.195312 56.757812 185.292969 56.757812 C 189.386719 56.757812 193.289062 58.371094 196.183594 61.269531 C 199.082031 64.164062 200.695312 68.066406 200.695312 72.164062 C 200.695312 76.257812 199.082031 80.15625 196.183594 83.054688 C 193.289062 85.949219 189.386719 87.5625 185.292969 87.5625 C 181.195312 87.5625 177.296875 85.949219 174.402344 83.054688 C 171.503906 80.15625 169.890625 76.257812 169.890625 72.164062 " fill-opacity="1" fill-rule="evenodd"/><g clip-path="url(#a1eed38d89)"><path fill="#2094f3" d="M 158.699219 2.65625 C 229.308594 2.65625 287.078125 60.425781 287.078125 131.035156 C 287.078125 201.644531 229.308594 259.414062 158.699219 259.414062 C 88.085938 259.414062 30.316406 201.644531 30.316406 131.035156 C 30.316406 60.425781 88.085938 2.65625 158.699219 2.65625 Z M 158.699219 16.875 C 95.910156 16.875 44.539062 68.246094 44.539062 131.035156 C 44.539062 193.824219 95.910156 245.195312 158.699219 245.195312 C 221.484375 245.195312 272.859375 193.824219 272.859375 131.035156 C 272.859375 68.246094 221.484375 16.875 158.699219 16.875 " fill-opacity="1" fill-rule="evenodd"/></g><g fill="#0288d1" fill-opacity="1"><g transform="translate(264.69719, 214.843728)"><g/></g></g><g fill="#e97131" fill-opacity="1"><g transform="translate(289.294081, 214.843728)"><g><path d="M 50.355469 -13.6875 C 49.542969 -20.453125 47.421875 -24.769531 41.554688 -26.890625 C 49.050781 -29.089844 52.882812 -33.816406 52.882812 -40.902344 C 52.882812 -50.84375 45.792969 -54.835938 37.644531 -55.816406 C 34.628906 -56.140625 32.347656 -56.222656 28.84375 -56.222656 L 6.519531 -56.222656 L 6.519531 0 L 21.183594 0 L 21.183594 -21.347656 L 24.445312 -21.347656 C 26.074219 -21.347656 27.460938 -21.347656 29.089844 -21.265625 C 32.835938 -21.023438 35.28125 -17.4375 36.015625 -11.246094 C 36.503906 -7.25 37.320312 -3.992188 38.621094 0 L 54.59375 0 C 52.394531 -3.339844 51.089844 -7.332031 50.355469 -13.6875 Z M 21.183594 -31.941406 L 21.183594 -44.816406 L 26.890625 -44.816406 C 28.4375 -44.816406 29.742188 -44.816406 30.800781 -44.734375 C 34.546875 -44.40625 37.5625 -43.105469 37.5625 -38.378906 C 37.5625 -33.652344 34.140625 -32.347656 30.394531 -32.023438 C 29.332031 -31.941406 28.03125 -31.941406 26.480469 -31.941406 Z M 21.183594 -31.941406 "/></g></g></g><g fill="#e97131" fill-opacity="1"><g transform="translate(342.82144, 214.843728)"><g><path d="M 49.621094 -11.40625 L 21.183594 -11.40625 L 21.183594 -22.488281 L 47.179688 -22.488281 L 47.179688 -33.898438 L 21.183594 -33.898438 L 21.183594 -44.816406 L 48.808594 -44.816406 L 48.808594 -56.222656 L 6.519531 -56.222656 L 6.519531 0 L 49.621094 0 Z M 49.621094 -11.40625 "/></g></g></g><g fill="#e97131" fill-opacity="1"><g transform="translate(392.845473, 214.843728)"><g><path d="M 26.238281 -57.363281 C 15.074219 -57.363281 4.96875 -51.253906 4.96875 -40.414062 C 4.96875 -29.171875 12.464844 -25.179688 25.257812 -22 C 32.183594 -20.289062 34.304688 -17.761719 34.304688 -14.828125 C 34.304688 -11.734375 31.207031 -9.613281 27.132812 -9.613281 C 22.734375 -9.613281 18.414062 -11.894531 17.4375 -17.191406 L 2.769531 -17.191406 C 3.667969 -4.5625 13.28125 1.140625 27.539062 1.140625 C 38.867188 1.140625 49.621094 -4.5625 49.621094 -15.808594 C 49.621094 -24.445312 44.570312 -30.636719 32.183594 -33.570312 C 22.894531 -35.769531 20.289062 -37.96875 20.289062 -41.554688 C 20.289062 -44.976562 22.570312 -46.609375 25.910156 -46.609375 C 30.71875 -46.609375 33.164062 -43.511719 33.816406 -38.867188 L 48.480469 -38.867188 C 47.257812 -49.296875 41.066406 -57.363281 26.238281 -57.363281 Z M 26.238281 -57.363281 "/></g></g></g><g fill="#e97131" fill-opacity="1"><g transform="translate(441.810353, 214.843728)"><g><path d="M 49.621094 -11.40625 L 21.183594 -11.40625 L 21.183594 -22.488281 L 47.179688 -22.488281 L 47.179688 -33.898438 L 21.183594 -33.898438 L 21.183594 -44.816406 L 48.808594 -44.816406 L 48.808594 -56.222656 L 6.519531 -56.222656 L 6.519531 0 L 49.621094 0 Z M 49.621094 -11.40625 "/></g></g></g><g fill="#e97131" fill-opacity="1"><g transform="translate(491.834376, 214.843728)"><g><path d="M 38.132812 -14.585938 L 42.859375 0 L 58.828125 0 L 38.539062 -56.222656 L 20.613281 -56.222656 L 0.324219 0 L 15.890625 0 L 20.613281 -14.585938 Z M 29.414062 -43.265625 L 34.628906 -25.992188 L 24.199219 -25.992188 Z M 29.414062 -43.265625 "/></g></g></g><g fill="#e97131" fill-opacity="1"><g transform="translate(547.398555, 214.843728)"><g><path d="M 50.355469 -13.6875 C 49.542969 -20.453125 47.421875 -24.769531 41.554688 -26.890625 C 49.050781 -29.089844 52.882812 -33.816406 52.882812 -40.902344 C 52.882812 -50.84375 45.792969 -54.835938 37.644531 -55.816406 C 34.628906 -56.140625 32.347656 -56.222656 28.84375 -56.222656 L 6.519531 -56.222656 L 6.519531 0 L 21.183594 0 L 21.183594 -21.347656 L 24.445312 -21.347656 C 26.074219 -21.347656 27.460938 -21.347656 29.089844 -21.265625 C 32.835938 -21.023438 35.28125 -17.4375 36.015625 -11.246094 C 36.503906 -7.25 37.320312 -3.992188 38.621094 0 L 54.59375 0 C 52.394531 -3.339844 51.089844 -7.332031 50.355469 -13.6875 Z M 21.183594 -31.941406 L 21.183594 -44.816406 L 26.890625 -44.816406 C 28.4375 -44.816406 29.742188 -44.816406 30.800781 -44.734375 C 34.546875 -44.40625 37.5625 -43.105469 37.5625 -38.378906 C 37.5625 -33.652344 34.140625 -32.347656 30.394531 -32.023438 C 29.332031 -31.941406 28.03125 -31.941406 26.480469 -31.941406 Z M 21.183594 -31.941406 "/></g></g></g><g fill="#e97131" fill-opacity="1"><g transform="translate(600.925914, 214.843728)"><g><path d="M 32.183594 -57.363281 C 16.949219 -57.363281 4.398438 -47.257812 4.398438 -27.703125 C 4.398438 -8.636719 16.539062 1.140625 31.613281 1.140625 C 45.710938 1.140625 56.058594 -5.785156 57.445312 -19.3125 L 57.527344 -20.125 L 42.859375 -20.125 L 42.695312 -19.3125 C 41.472656 -13.117188 37.808594 -9.613281 32.105469 -9.613281 C 25.585938 -9.613281 19.71875 -14.421875 19.71875 -28.601562 C 19.71875 -40.742188 25.015625 -46.609375 32.023438 -46.609375 C 37.96875 -46.609375 41.636719 -43.753906 42.859375 -37.726562 L 43.023438 -36.910156 L 57.6875 -36.910156 L 57.609375 -37.726562 C 56.46875 -48.808594 48.238281 -57.363281 32.183594 -57.363281 Z M 32.183594 -57.363281 "/></g></g></g><g fill="#e97131" fill-opacity="1"><g transform="translate(658.68987, 214.843728)"><g><path d="M 58.339844 -56.222656 L 43.675781 -56.222656 L 43.675781 -33.246094 L 21.183594 -33.246094 L 21.183594 -56.222656 L 6.519531 -56.222656 L 6.519531 0 L 21.183594 0 L 21.183594 -21.835938 L 43.675781 -21.835938 L 43.675781 0 L 58.339844 0 Z M 58.339844 -56.222656 "/></g></g></g><g fill="#d32f2f" fill-opacity="1"><g transform="translate(294.510058, 131.453807)"><g><path d="M 37.480469 -20.613281 C 39.121094 -21.464844 40.566406 -22.449219 41.8125 -23.632812 C 43.914062 -25.535156 45.488281 -27.898438 46.671875 -30.71875 C 47.851562 -33.542969 48.378906 -36.824219 48.378906 -40.5 L 48.378906 -40.699219 C 48.378906 -44.175781 47.851562 -47.261719 46.800781 -50.019531 C 45.753906 -52.777344 44.242188 -55.074219 42.273438 -56.976562 C 40.371094 -58.878906 37.941406 -60.257812 35.183594 -61.242188 C 32.425781 -62.226562 29.277344 -62.753906 25.929688 -62.753906 L 16.871094 -62.753906 C 10.109375 -62.753906 2.691406 -56.386719 2.691406 -48.507812 L 2.691406 0 C 10.960938 0 17.722656 -7.746094 17.722656 -17.394531 L 17.722656 -17.921875 L 23.894531 -17.921875 L 32.035156 -5.777344 C 36.167969 0.394531 43.585938 1.839844 49.757812 -2.296875 Z M 17.722656 -48.246094 L 24.746094 -48.246094 C 27.503906 -48.246094 29.605469 -47.523438 31.113281 -46.082031 C 32.625 -44.703125 33.410156 -42.601562 33.410156 -39.910156 L 33.410156 -39.714844 C 33.410156 -37.21875 32.625 -35.25 31.113281 -33.738281 C 29.605469 -32.296875 27.503906 -31.507812 24.8125 -31.507812 L 17.722656 -31.507812 Z M 17.722656 -48.246094 "/></g></g></g><g fill="#d32f2f" fill-opacity="1"><g transform="translate(344.850833, 131.453807)"><g><path d="M 16.871094 -24.550781 L 31.046875 -24.550781 L 34.265625 -38.074219 L 16.871094 -38.074219 L 16.871094 -47.394531 L 30.0625 -47.394531 C 38.136719 -47.394531 43.390625 -53.957031 43.390625 -61.964844 L 16.804688 -61.964844 C 8.925781 -61.964844 2.558594 -55.597656 2.558594 -47.789062 L 2.558594 -14.046875 C 2.558594 -6.367188 8.796875 -0.132812 16.476562 -0.132812 L 25.996094 -0.132812 C 34.066406 -0.132812 40.238281 -6.628906 40.238281 -14.703125 L 16.871094 -14.703125 Z M 16.871094 -24.550781 "/></g></g></g><g fill="#d32f2f" fill-opacity="1"><g transform="translate(389.350211, 131.453807)"><g><path d="M 34.527344 -53.234375 C 33.675781 -56.519531 31.902344 -58.816406 29.015625 -60.457031 C 27.503906 -61.308594 25.796875 -61.835938 24.023438 -61.835938 C 22.1875 -61.835938 20.480469 -61.308594 18.96875 -60.457031 C 16.148438 -58.816406 14.308594 -56.519531 13.523438 -53.234375 L 0.394531 -0.523438 C 7.679688 1.246094 14.964844 -2.757812 16.605469 -9.453125 L 17.328125 -12.40625 L 17.59375 -13.851562 L 30.390625 -13.851562 L 30.65625 -12.40625 L 31.375 -9.453125 C 33.019531 -2.757812 40.304688 1.246094 47.589844 -0.523438 Z M 19.890625 -24.8125 L 24.023438 -44.503906 L 28.09375 -24.8125 Z M 19.890625 -24.8125 "/></g></g></g><g fill="#d32f2f" fill-opacity="1"><g transform="translate(435.949863, 131.453807)"><g><path d="M 25.402344 -62.558594 L 16.9375 -62.558594 C 16.9375 -62.558594 16.9375 -62.558594 16.871094 -62.558594 L 15.425781 -62.558594 L 15.425781 -62.492188 C 8.140625 -61.769531 3.28125 -55.992188 3.28125 -49.035156 L 3.28125 0.261719 C 3.28125 0.261719 3.347656 0.261719 3.347656 0.261719 L 25.402344 0.261719 C 38.269531 0.261719 48.117188 -9.320312 48.117188 -20.675781 L 48.117188 -39.84375 C 48.117188 -54.285156 38.269531 -62.558594 25.402344 -62.558594 Z M 34.789062 -22.777344 C 34.789062 -17.59375 30.589844 -12.996094 25.402344 -12.996094 L 16.9375 -12.996094 C 16.9375 -13.128906 16.9375 -13.195312 16.9375 -13.324219 L 16.9375 -49.296875 L 25.402344 -49.296875 C 30.589844 -49.296875 34.789062 -44.703125 34.789062 -39.449219 Z M 34.789062 -22.777344 "/></g></g></g><g fill="#d32f2f" fill-opacity="1"><g transform="translate(485.962464, 131.453807)"><g><path d="M 38.859375 -53.890625 L 30.851562 -37.21875 L 22.777344 -53.890625 C 19.496094 -60.71875 10.765625 -64.199219 3.28125 -60.585938 L 22.710938 -20.347656 L 13.195312 -0.460938 C 20.613281 3.152344 28.027344 -0.132812 31.3125 -6.957031 L 56.976562 -60.457031 C 49.492188 -64 42.140625 -60.71875 38.859375 -53.890625 Z M 38.859375 -53.890625 "/></g></g></g><g fill="#2094f3" fill-opacity="1"><g transform="translate(547.113202, 131.979335)"><g><path d="M 37.839844 -70.101562 C 22.800781 -70.101562 8.761719 -61.4375 8.761719 -45.804688 C 8.761719 -35.449219 16.429688 -30.570312 29.671875 -27.183594 C 36.84375 -25.292969 39.628906 -22.207031 39.628906 -19.117188 C 39.628906 -14.738281 35.148438 -11.75 29.671875 -11.75 C 24.296875 -11.75 19.417969 -14.539062 19.417969 -21.011719 L 1.492188 -21.011719 C -0.0976562 -5.578125 11.152344 1.394531 27.78125 1.394531 C 43.8125 1.394531 58.847656 -6.671875 58.847656 -22.703125 C 58.847656 -31.367188 53.472656 -37.9375 40.925781 -41.023438 C 31.167969 -43.414062 27.980469 -46.003906 27.980469 -49.6875 C 27.980469 -54.46875 31.464844 -56.957031 36.144531 -56.957031 C 42.019531 -56.957031 44.3125 -53.171875 44.113281 -47.496094 L 62.035156 -47.496094 C 62.730469 -60.242188 55.960938 -70.101562 37.839844 -70.101562 Z M 37.839844 -70.101562 "/></g></g></g><g fill="#2094f3" fill-opacity="1"><g transform="translate(607.055326, 131.979335)"><g><path d="M 20.015625 -22.105469 L 56.855469 -22.105469 C 57.953125 -25.390625 58.648438 -29.273438 58.648438 -32.5625 C 58.648438 -44.210938 51.28125 -54.566406 34.351562 -54.566406 C 16.03125 -54.566406 2.089844 -41.421875 2.089844 -20.8125 C 2.089844 -4.582031 13.542969 1.394531 26.886719 1.394531 C 41.324219 1.394531 51.480469 -5.378906 55.664062 -17.425781 L 38.039062 -17.425781 C 36.644531 -13.34375 33.058594 -10.753906 27.980469 -10.753906 C 23.300781 -10.753906 20.015625 -13.441406 20.015625 -20.613281 Z M 32.859375 -42.417969 C 38.136719 -42.417969 40.425781 -39.132812 40.425781 -34.152344 C 40.425781 -33.953125 40.425781 -33.65625 40.328125 -33.058594 L 22.105469 -33.058594 C 24.394531 -38.933594 28.277344 -42.417969 32.859375 -42.417969 Z M 32.859375 -42.417969 "/></g></g></g><g fill="#2094f3" fill-opacity="1"><g transform="translate(665.503871, 131.979335)"><g><path d="M 28.875 -41.621094 L 40.425781 -41.621094 L 42.417969 -52.773438 L 30.867188 -52.773438 L 33.257812 -66.515625 L 15.335938 -66.515625 L 12.84375 -52.773438 L 4.878906 -52.773438 L 2.886719 -41.621094 L 10.953125 -41.621094 L 6.96875 -19.417969 C 6.074219 -14.339844 5.773438 -11.351562 5.773438 -8.863281 C 5.773438 -1.992188 9.660156 1.394531 20.511719 1.394531 C 24.894531 1.394531 28.777344 0.996094 32.960938 0.0976562 L 34.949219 -11.152344 C 27.78125 -10.257812 24.695312 -11.351562 24.695312 -15.933594 C 24.695312 -17.824219 24.894531 -19.316406 25.390625 -22.007812 Z M 28.875 -41.621094 "/></g></g></g></svg>