<svg xmlns="http://www.w3.org/2000/svg" xmlns:xlink="http://www.w3.org/1999/xlink" width="1000" zoomAndPan="magnify" viewBox="0 0 750 262.499992" height="350" preserveAspectRatio="xMidYMid meet" version="1.0"><defs><g/><clipPath id="fae0221bae"><path d="M 30.316406 2.65625 L 287.078125 2.65625 L 287.078125 259.414062 L 30.316406 259.414062 Z M 30.316406 2.65625 " clip-rule="nonzero"/></clipPath></defs><path fill="#2094f3" d="M 147.292969 99.375 L 136.085938 99.882812 L 118.421875 115.800781 L 116.96875 115.597656 C 110.230469 114.667969 108.640625 109.222656 111.734375 104.027344 L 111.96875 103.628906 L 130.304688 86.753906 L 130.964844 86.542969 C 133.621094 85.6875 136.863281 85.371094 139.640625 85.164062 C 143.269531 84.890625 146.933594 84.804688 150.574219 84.769531 C 153.980469 84.738281 157.386719 84.761719 160.796875 84.785156 C 162.347656 84.796875 163.898438 84.808594 165.449219 84.808594 L 167.597656 84.8125 L 168.386719 86.8125 C 169.40625 89.402344 170.976562 91.480469 173.453125 92.816406 C 178.960938 95.792969 187.867188 94.371094 193.910156 93.53125 C 195.210938 93.347656 196.511719 93.171875 197.8125 93.015625 C 198.234375 92.964844 198.65625 92.914062 199.078125 92.871094 C 199.476562 92.832031 200.277344 92.796875 200.644531 92.597656 C 201.023438 92.390625 201.460938 91.792969 201.730469 91.476562 C 202.035156 91.109375 202.34375 90.75 202.65625 90.390625 L 213.507812 77.917969 L 214.382812 77.65625 C 217.4375 76.738281 220.527344 77.136719 222.789062 79.523438 C 224.132812 80.941406 224.929688 82.828125 225.316406 84.722656 L 225.652344 86.371094 L 204.035156 108.382812 L 179.515625 108.957031 L 163.738281 144.640625 L 182.125 162.070312 L 182.175781 163.351562 C 182.261719 165.445312 182.035156 167.667969 181.757812 169.742188 C 180.773438 177.011719 178.636719 185.0625 175.898438 191.882812 C 174.203125 196.109375 170.589844 204.6875 165.339844 205.261719 C 164.753906 205.324219 164.84375 205.335938 164.222656 205.25 C 160.277344 204.71875 156.863281 202.445312 155.386719 198.683594 L 154.964844 197.609375 L 164.9375 168.078125 L 144.222656 151.722656 L 136.351562 171.914062 L 135.875 172.382812 C 129.304688 178.917969 121.632812 184.378906 113.25 188.34375 C 109.328125 190.199219 104.761719 191.984375 100.496094 192.910156 L 100.015625 193.011719 L 99.527344 192.96875 C 91.492188 192.207031 90.34375 185.582031 93.078125 179.445312 L 93.644531 178.167969 L 94.976562 177.730469 C 103.121094 175.050781 112.753906 170.890625 118.9375 164.726562 C 120.660156 163.011719 123.074219 160.042969 123.582031 157.554688 L 123.640625 157.269531 L 147.292969 99.375 " fill-opacity="1" fill-rule="evenodd"/><path fill="#2094f3" d="M 169.890625 72.164062 C 169.890625 68.066406 171.503906 64.164062 174.402344 61.269531 C 177.296875 58.371094 181.195312 56.757812 185.292969 56.757812 C 189.386719 56.757812 193.289062 58.371094 196.183594 61.269531 C 199.082031 64.164062 200.695312 68.066406 200.695312 72.164062 C 200.695312 76.257812 199.082031 80.15625 196.183594 83.054688 C 193.289062 85.949219 189.386719 87.5625 185.292969 87.5625 C 181.195312 87.5625 177.296875 85.949219 174.402344 83.054688 C 171.503906 80.15625 169.890625 76.257812 169.890625 72.164062 " fill-opacity="1" fill-rule="evenodd"/><g clip-path="url(#fae0221bae)"><path fill="#2094f3" d="M 158.699219 2.65625 C 229.308594 2.65625 287.078125 60.425781 287.078125 131.035156 C 287.078125 201.644531 229.308594 259.414062 158.699219 259.414062 C 88.085938 259.414062 30.316406 201.644531 30.316406 131.035156 C 30.316406 60.425781 88.085938 2.65625 158.699219 2.65625 Z M 158.699219 16.875 C 95.910156 16.875 44.539062 68.246094 44.539062 131.035156 C 44.539062 193.824219 95.910156 245.195312 158.699219 245.195312 C 221.484375 245.195312 272.859375 193.824219 272.859375 131.035156 C 272.859375 68.246094 221.484375 16.875 158.699219 16.875 " fill-opacity="1" fill-rule="evenodd"/></g><g fill="#0288d1" fill-opacity="1"><g transform="translate(264.69719, 214.843728)"><g/></g></g><g fill="#e97131" fill-opacity="1"><g transform="translate(289.294081, 214.843728)"><g><path d="M 50.355469 -13.6875 C 49.542969 -20.453125 47.421875 -24.769531 41.554688 -26.890625 C 49.050781 -29.089844 52.882812 -33.816406 52.882812 -40.902344 C 52.882812 -50.84375 45.792969 -54.835938 37.644531 -55.816406 C 34.628906 -56.140625 32.347656 -56.222656 28.84375 -56.222656 L 6.519531 -56.222656 L 6.519531 0 L 21.183594 0 L 21.183594 -21.347656 L 24.445312 -21.347656 C 26.074219 -21.347656 27.460938 -21.347656 29.089844 -21.265625 C 32.835938 -21.023438 35.28125 -17.4375 36.015625 -11.246094 C 36.503906 -7.25 37.320312 -3.992188 38.621094 0 L 54.59375 0 C 52.394531 -3.339844 51.089844 -7.332031 50.355469 -13.6875 Z M 21.183594 -31.941406 L 21.183594 -44.816406 L 26.890625 -44.816406 C 28.4375 -44.816406 29.742188 -44.816406 30.800781 -44.734375 C 34.546875 -44.40625 37.5625 -43.105469 37.5625 -38.378906 C 37.5625 -33.652344 34.140625 -32.347656 30.394531 -32.023438 C 29.332031 -31.941406 28.03125 -31.941406 26.480469 -31.941406 Z M 21.183594 -31.941406 "/></g></g></g><g fill="#e97131" fill-opacity="1"><g transform="translate(342.82144, 214.843728)"><g><path d="M 49.621094 -11.40625 L 21.183594 -11.40625 L 21.183594 -22.488281 L 47.179688 -22.488281 L 47.179688 -33.898438 L 21.183594 -33.898438 L 21.183594 -44.816406 L 48.808594 -44.816406 L 48.808594 -56.222656 L 6.519531 -56.222656 L 6.519531 0 L 49.621094 0 Z M 49.621094 -11.40625 "/></g></g></g><g fill="#e97131" fill-opacity="1"><g transform="translate(392.845473, 214.843728)"><g><path d="M 26.238281 -57.363281 C 15.074219 -57.363281 4.96875 -51.253906 4.96875 -40.414062 C 4.96875 -29.171875 12.464844 -25.179688 25.257812 -22 C 32.183594 -20.289062 34.304688 -17.761719 34.304688 -14.828125 C 34.304688 -11.734375 31.207031 -9.613281 27.132812 -9.613281 C 22.734375 -9.613281 18.414062 -11.894531 17.4375 -17.191406 L 2.769531 -17.191406 C 3.667969 -4.5625 13.28125 1.140625 27.539062 1.140625 C 38.867188 1.140625 49.621094 -4.5625 49.621094 -15.808594 C 49.621094 -24.445312 44.570312 -30.636719 32.183594 -33.570312 C 22.894531 -35.769531 20.289062 -37.96875 20.289062 -41.554688 C 20.289062 -44.976562 22.570312 -46.609375 25.910156 -46.609375 C 30.71875 -46.609375 33.164062 -43.511719 33.816406 -38.867188 L 48.480469 -38.867188 C 47.257812 -49.296875 41.066406 -57.363281 26.238281 -57.363281 Z M 26.238281 -57.363281 "/></g></g></g><g fill="#e97131" fill-opacity="1"><g transform="translate(441.810353, 214.843728)"><g><path d="M 49.621094 -11.40625 L 21.183594 -11.40625 L 21.183594 -22.488281 L 47.179688 -22.488281 L 47.179688 -33.898438 L 21.183594 -33.898438 L 21.183594 -44.816406 L 48.808594 -44.816406 L 48.808594 -56.222656 L 6.519531 -56.222656 L 6.519531 0 L 49.621094 0 Z M 49.621094 -11.40625 "/></g></g></g><g fill="#e97131" fill-opacity="1"><g transform="translate(491.834376, 214.843728)"><g><path d="M 38.132812 -14.585938 L 42.859375 0 L 58.828125 0 L 38.539062 -56.222656 L 20.613281 -56.222656 L 0.324219 0 L 15.890625 0 L 20.613281 -14.585938 Z M 29.414062 -43.265625 L 34.628906 -25.992188 L 24.199219 -25.992188 Z M 29.414062 -43.265625 "/></g></g></g><g fill="#e97131" fill-opacity="1"><g transform="translate(547.398555, 214.843728)"><g><path d="M 50.355469 -13.6875 C 49.542969 -20.453125 47.421875 -24.769531 41.554688 -26.890625 C 49.050781 -29.089844 52.882812 -33.816406 52.882812 -40.902344 C 52.882812 -50.84375 45.792969 -54.835938 37.644531 -55.816406 C 34.628906 -56.140625 32.347656 -56.222656 28.84375 -56.222656 L 6.519531 -56.222656 L 6.519531 0 L 21.183594 0 L 21.183594 -21.347656 L 24.445312 -21.347656 C 26.074219 -21.347656 27.460938 -21.347656 29.089844 -21.265625 C 32.835938 -21.023438 35.28125 -17.4375 36.015625 -11.246094 C 36.503906 -7.25 37.320312 -3.992188 38.621094 0 L 54.59375 0 C 52.394531 -3.339844 51.089844 -7.332031 50.355469 -13.6875 Z M 21.183594 -31.941406 L 21.183594 -44.816406 L 26.890625 -44.816406 C 28.4375 -44.816406 29.742188 -44.816406 30.800781 -44.734375 C 34.546875 -44.40625 37.5625 -43.105469 37.5625 -38.378906 C 37.5625 -33.652344 34.140625 -32.347656 30.394531 -32.023438 C 29.332031 -31.941406 28.03125 -31.941406 26.480469 -31.941406 Z M 21.183594 -31.941406 "/></g></g></g><g fill="#e97131" fill-opacity="1"><g transform="translate(600.925914, 214.843728)"><g><path d="M 32.183594 -57.363281 C 16.949219 -57.363281 4.398438 -47.257812 4.398438 -27.703125 C 4.398438 -8.636719 16.539062 1.140625 31.613281 1.140625 C 45.710938 1.140625 56.058594 -5.785156 57.445312 -19.3125 L 57.527344 -20.125 L 42.859375 -20.125 L 42.695312 -19.3125 C 41.472656 -13.117188 37.808594 -9.613281 32.105469 -9.613281 C 25.585938 -9.613281 19.71875 -14.421875 19.71875 -28.601562 C 19.71875 -40.742188 25.015625 -46.609375 32.023438 -46.609375 C 37.96875 -46.609375 41.636719 -43.753906 42.859375 -37.726562 L 43.023438 -36.910156 L 57.6875 -36.910156 L 57.609375 -37.726562 C 56.46875 -48.808594 48.238281 -57.363281 32.183594 -57.363281 Z M 32.183594 -57.363281 "/></g></g></g><g fill="#e97131" fill-opacity="1"><g transform="translate(658.68987, 214.843728)"><g><path d="M 58.339844 -56.222656 L 43.675781 -56.222656 L 43.675781 -33.246094 L 21.183594 -33.246094 L 21.183594 -56.222656 L 6.519531 -56.222656 L 6.519531 0 L 21.183594 0 L 21.183594 -21.835938 L 43.675781 -21.835938 L 43.675781 0 L 58.339844 0 Z M 58.339844 -56.222656 "/></g></g></g><g fill="#d32f2f" fill-opacity="1"><g transform="translate(289.296088, 125.444727)"><g><path d="M 13.574219 0 L 15.101562 0 C 19.765625 0 22.3125 -2.546875 22.3125 -7.210938 C 22.226562 -11.878906 22.226562 -16.542969 22.226562 -21.207031 L 25.367188 -21.207031 C 32.238281 -21.207031 34.527344 -14.929688 35.714844 -6.871094 C 36.394531 -2.289062 38.855469 0 43.351562 0 L 46.066406 0 C 51.070312 0 53.699219 -3.054688 52.597656 -8.144531 C 50.222656 -18.664062 46.746094 -23.921875 41.144531 -25.621094 L 41.144531 -25.960938 C 48.355469 -27.742188 52.769531 -33.511719 52.769531 -41.144531 C 52.769531 -53.53125 45.386719 -58.792969 28.164062 -58.792969 L 13.574219 -58.792969 C 8.90625 -58.792969 6.363281 -56.246094 6.363281 -51.582031 C 6.449219 -44.199219 6.53125 -36.820312 6.53125 -29.4375 C 6.53125 -21.972656 6.449219 -14.589844 6.363281 -7.210938 C 6.363281 -2.546875 8.90625 0 13.574219 0 Z M 22.226562 -30.539062 C 22.226562 -38.515625 22.226562 -42.84375 22.3125 -47.082031 L 26.382812 -47.082031 C 33.425781 -47.082031 36.394531 -44.878906 36.394531 -39.617188 C 36.394531 -33.171875 33.085938 -30.539062 25.113281 -30.539062 Z M 22.226562 -30.539062 "/></g></g></g><g fill="#d32f2f" fill-opacity="1"><g transform="translate(345.032287, 125.444727)"><g><path d="M 24.941406 0.847656 C 35.375 0.847656 41.738281 -2.121094 43.773438 -8.398438 C 45.046875 -12.214844 41.910156 -14.589844 37.496094 -14.589844 C 33.847656 -14.589844 33.511719 -12.214844 30.285156 -10.09375 C 29.097656 -9.417969 27.316406 -8.992188 25.027344 -8.992188 C 20.613281 -8.992188 17.390625 -11.113281 17.050781 -19.851562 L 44.113281 -19.851562 C 44.792969 -19.851562 45.300781 -20.359375 45.386719 -21.207031 C 47 -36.988281 40.722656 -47.679688 24.941406 -47.679688 C 10.265625 -47.679688 3.054688 -39.789062 3.054688 -24.179688 C 3.054688 -7.464844 9.757812 0.847656 24.941406 0.847656 Z M 17.136719 -27.828125 C 16.96875 -34.699219 19.851562 -38.007812 24.261719 -38.007812 C 29.183594 -38.007812 31.21875 -34.613281 31.050781 -27.828125 Z M 17.136719 -27.828125 "/></g></g></g><g fill="#d32f2f" fill-opacity="1"><g transform="translate(391.945693, 125.444727)"><g><path d="M 17.730469 0.847656 C 22.480469 0.847656 27.0625 -0.761719 30.457031 -4.070312 C 30.539062 -3.394531 30.625 -2.714844 30.878906 -2.035156 C 31.21875 -0.679688 33.511719 0 37.835938 0 L 38.601562 0 C 43.179688 0 45.558594 -2.628906 45.300781 -7.378906 C 45.046875 -13.148438 45.046875 -20.53125 45.046875 -30.710938 C 45.046875 -42.078125 38.769531 -47.679688 26.128906 -47.679688 C 13.742188 -47.679688 7.210938 -44.371094 5.261719 -37.753906 C 3.902344 -33.085938 7.378906 -30.371094 12.132812 -30.371094 L 12.980469 -30.371094 C 17.136719 -30.371094 17.476562 -32.660156 19.9375 -36.394531 C 20.953125 -37.921875 22.820312 -38.515625 25.027344 -38.515625 C 28.757812 -38.515625 30.457031 -36.648438 30.457031 -30.457031 L 30.457031 -27.570312 C 11.367188 -28.082031 2.628906 -22.566406 2.628906 -11.960938 C 2.628906 -3.054688 9.332031 0.847656 17.730469 0.847656 Z M 22.226562 -8.738281 C 18.238281 -8.738281 16.117188 -11.027344 16.117188 -14.253906 C 16.117188 -19.683594 22.90625 -20.613281 30.625 -20.785156 L 30.625 -13.148438 C 28.675781 -10.351562 26.042969 -8.738281 22.226562 -8.738281 Z M 22.226562 -8.738281 "/></g></g></g><g fill="#d32f2f" fill-opacity="1"><g transform="translate(439.198438, 125.444727)"><g><path d="M 39.363281 -61.84375 L 38.855469 -61.84375 C 34.1875 -61.84375 31.644531 -59.300781 31.644531 -54.632812 C 31.730469 -50.136719 31.730469 -45.726562 31.8125 -41.316406 C 29.523438 -45.132812 25.789062 -47.59375 21.125 -47.59375 C 11.113281 -47.59375 3.054688 -39.195312 3.054688 -22.398438 C 3.054688 -4.582031 11.113281 0.933594 21.378906 0.933594 C 27.148438 0.933594 30.964844 -1.953125 33.253906 -5.003906 C 33.511719 -4.15625 33.679688 -3.308594 33.933594 -2.460938 C 34.527344 -0.761719 36.734375 0 40.722656 0 C 44.539062 0 46.574219 -2.546875 46.488281 -7.210938 C 46.40625 -12.046875 46.320312 -16.710938 46.320312 -21.71875 C 46.320312 -32.917969 46.488281 -43.519531 46.574219 -54.632812 C 46.574219 -59.300781 44.03125 -61.84375 39.363281 -61.84375 Z M 25.367188 -11.027344 C 19.9375 -11.027344 16.796875 -14.253906 16.796875 -23.246094 C 16.796875 -33.679688 20.613281 -36.140625 25.027344 -36.140625 C 28.082031 -36.140625 30.796875 -34.953125 31.8125 -31.472656 C 31.8125 -28.25 31.8125 -25.027344 31.730469 -21.71875 C 31.644531 -18.917969 31.558594 -16.289062 31.558594 -13.574219 C 30.03125 -11.878906 28.25 -11.027344 25.367188 -11.027344 Z M 25.367188 -11.027344 "/></g></g></g><g fill="#d32f2f" fill-opacity="1"><g transform="translate(488.232714, 125.444727)"><g><path d="M 46.40625 -21.71875 C 46.40625 -27.828125 46.488281 -33.679688 46.574219 -39.617188 C 46.574219 -44.371094 44.03125 -46.914062 39.363281 -46.914062 L 38.855469 -46.914062 C 34.1875 -46.914062 31.644531 -44.371094 31.730469 -39.703125 C 31.8125 -33.679688 31.898438 -27.828125 31.730469 -21.71875 C 31.730469 -15.355469 29.351562 -12.132812 25.367188 -12.046875 C 22.058594 -11.960938 19.683594 -14.421875 19.683594 -19.257812 C 19.683594 -26.214844 19.765625 -32.832031 19.851562 -39.703125 C 19.851562 -44.371094 17.304688 -46.914062 12.640625 -46.914062 L 12.132812 -46.914062 C 7.464844 -46.914062 4.921875 -44.371094 4.921875 -39.703125 C 5.003906 -31.898438 5.175781 -24.433594 5.003906 -16.542969 C 4.75 -3.648438 10.09375 0.933594 19.171875 0.933594 C 25.621094 0.933594 30.878906 -2.96875 33.253906 -9.585938 L 33.59375 -9.417969 C 33.59375 5.089844 28.164062 8.992188 15.101562 8.3125 C 10.265625 8.144531 7.464844 9.671875 7.210938 13.402344 C 6.871094 17.304688 8.570312 20.191406 12.808594 20.953125 C 14.589844 21.207031 16.542969 21.378906 18.496094 21.378906 C 35.632812 21.378906 46.828125 12.300781 46.488281 -11.027344 C 46.488281 -14.589844 46.40625 -18.070312 46.40625 -21.71875 Z M 46.40625 -21.71875 "/></g></g></g><g fill="#2094f3" fill-opacity="1"><g transform="translate(547.861776, 131.979335)"><g><path d="M 37.839844 -70.101562 C 22.800781 -70.101562 8.761719 -61.4375 8.761719 -45.804688 C 8.761719 -35.449219 16.429688 -30.570312 29.671875 -27.183594 C 36.84375 -25.292969 39.628906 -22.207031 39.628906 -19.117188 C 39.628906 -14.738281 35.148438 -11.75 29.671875 -11.75 C 24.296875 -11.75 19.417969 -14.539062 19.417969 -21.011719 L 1.492188 -21.011719 C -0.0976562 -5.578125 11.152344 1.394531 27.78125 1.394531 C 43.8125 1.394531 58.847656 -6.671875 58.847656 -22.703125 C 58.847656 -31.367188 53.472656 -37.9375 40.925781 -41.023438 C 31.167969 -43.414062 27.980469 -46.003906 27.980469 -49.6875 C 27.980469 -54.46875 31.464844 -56.957031 36.144531 -56.957031 C 42.019531 -56.957031 44.3125 -53.171875 44.113281 -47.496094 L 62.035156 -47.496094 C 62.730469 -60.242188 55.960938 -70.101562 37.839844 -70.101562 Z M 37.839844 -70.101562 "/></g></g></g><g fill="#2094f3" fill-opacity="1"><g transform="translate(607.803901, 131.979335)"><g><path d="M 20.015625 -22.105469 L 56.855469 -22.105469 C 57.953125 -25.390625 58.648438 -29.273438 58.648438 -32.5625 C 58.648438 -44.210938 51.28125 -54.566406 34.351562 -54.566406 C 16.03125 -54.566406 2.089844 -41.421875 2.089844 -20.8125 C 2.089844 -4.582031 13.542969 1.394531 26.886719 1.394531 C 41.324219 1.394531 51.480469 -5.378906 55.664062 -17.425781 L 38.039062 -17.425781 C 36.644531 -13.34375 33.058594 -10.753906 27.980469 -10.753906 C 23.300781 -10.753906 20.015625 -13.441406 20.015625 -20.613281 Z M 32.859375 -42.417969 C 38.136719 -42.417969 40.425781 -39.132812 40.425781 -34.152344 C 40.425781 -33.953125 40.425781 -33.65625 40.328125 -33.058594 L 22.105469 -33.058594 C 24.394531 -38.933594 28.277344 -42.417969 32.859375 -42.417969 Z M 32.859375 -42.417969 "/></g></g></g><g fill="#2094f3" fill-opacity="1"><g transform="translate(666.252445, 131.979335)"><g><path d="M 28.875 -41.621094 L 40.425781 -41.621094 L 42.417969 -52.773438 L 30.867188 -52.773438 L 33.257812 -66.515625 L 15.335938 -66.515625 L 12.84375 -52.773438 L 4.878906 -52.773438 L 2.886719 -41.621094 L 10.953125 -41.621094 L 6.96875 -19.417969 C 6.074219 -14.339844 5.773438 -11.351562 5.773438 -8.863281 C 5.773438 -1.992188 9.660156 1.394531 20.511719 1.394531 C 24.894531 1.394531 28.777344 0.996094 32.960938 0.0976562 L 34.949219 -11.152344 C 27.78125 -10.257812 24.695312 -11.351562 24.695312 -15.933594 C 24.695312 -17.824219 24.894531 -19.316406 25.390625 -22.007812 Z M 28.875 -41.621094 "/></g></g></g></svg>