<svg xmlns="http://www.w3.org/2000/svg" xmlns:xlink="http://www.w3.org/1999/xlink" width="1200" zoomAndPan="magnify" viewBox="0 0 900 472.499986" height="630" preserveAspectRatio="xMidYMid meet" version="1.0"><defs><g/><clipPath id="a8bbaa571f"><path d="M 16.496094 73.882812 L 340.902344 73.882812 L 340.902344 398.289062 L 16.496094 398.289062 Z M 16.496094 73.882812 " clip-rule="nonzero"/></clipPath></defs><path fill="#38b6ff" d="M 164.289062 196.082031 L 150.128906 196.726562 L 127.8125 216.835938 L 125.976562 216.582031 C 117.460938 215.40625 115.453125 208.523438 119.359375 201.960938 L 119.660156 201.460938 L 142.824219 180.136719 L 143.660156 179.867188 C 147.015625 178.789062 151.113281 178.390625 154.621094 178.125 C 159.207031 177.785156 163.835938 177.675781 168.433594 177.632812 C 172.738281 177.589844 177.042969 177.617188 181.351562 177.652344 C 183.308594 177.664062 185.269531 177.679688 187.226562 177.683594 L 189.941406 177.683594 L 190.941406 180.210938 C 192.230469 183.484375 194.210938 186.109375 197.34375 187.800781 C 204.296875 191.554688 215.550781 189.761719 223.1875 188.699219 C 224.828125 188.46875 226.472656 188.242188 228.121094 188.046875 C 228.652344 187.984375 229.183594 187.921875 229.714844 187.867188 C 230.21875 187.816406 231.230469 187.773438 231.695312 187.519531 C 232.175781 187.261719 232.730469 186.503906 233.066406 186.105469 C 233.453125 185.644531 233.84375 185.1875 234.234375 184.730469 L 247.949219 168.972656 L 249.054688 168.640625 C 252.914062 167.480469 256.820312 167.988281 259.675781 171.003906 C 261.375 172.792969 262.382812 175.179688 262.867188 177.570312 L 263.289062 179.652344 L 235.980469 207.464844 L 205 208.1875 L 185.070312 253.273438 L 208.300781 275.296875 L 208.363281 276.917969 C 208.46875 279.5625 208.183594 282.371094 207.832031 284.992188 C 206.589844 294.171875 203.890625 304.34375 200.429688 312.964844 C 198.289062 318.300781 193.722656 329.140625 187.089844 329.867188 C 186.347656 329.949219 186.460938 329.957031 185.679688 329.851562 C 180.691406 329.179688 176.378906 326.308594 174.515625 321.554688 L 173.984375 320.199219 L 186.582031 282.886719 L 160.410156 262.222656 L 150.464844 287.734375 L 149.863281 288.328125 C 141.558594 296.582031 131.867188 303.480469 121.277344 308.492188 C 116.324219 310.835938 110.554688 313.089844 105.164062 314.261719 L 104.558594 314.390625 L 103.941406 314.332031 C 93.789062 313.375 92.335938 305 95.789062 297.25 L 96.507812 295.636719 L 98.1875 295.082031 C 108.480469 291.695312 120.648438 286.441406 128.464844 278.65625 C 130.640625 276.488281 133.6875 272.734375 134.332031 269.59375 L 134.40625 269.230469 L 164.289062 196.082031 " fill-opacity="1" fill-rule="evenodd"/><path fill="#38b6ff" d="M 192.839844 161.703125 C 192.839844 156.523438 194.878906 151.597656 198.539062 147.9375 C 202.195312 144.28125 207.125 142.242188 212.300781 142.242188 C 217.472656 142.242188 222.402344 144.28125 226.058594 147.9375 C 229.71875 151.597656 231.761719 156.523438 231.761719 161.703125 C 231.761719 166.875 229.71875 171.804688 226.058594 175.460938 C 222.402344 179.121094 217.472656 181.160156 212.300781 181.160156 C 207.125 181.160156 202.195312 179.121094 198.539062 175.460938 C 194.878906 171.804688 192.839844 166.875 192.839844 161.703125 " fill-opacity="1" fill-rule="evenodd"/><g clip-path="url(#a8bbaa571f)"><path fill="#38b6ff" d="M 178.699219 73.882812 C 267.910156 73.882812 340.902344 146.871094 340.902344 236.085938 C 340.902344 325.296875 267.910156 398.289062 178.699219 398.289062 C 89.484375 398.289062 16.496094 325.296875 16.496094 236.085938 C 16.496094 146.871094 89.484375 73.882812 178.699219 73.882812 Z M 178.699219 91.847656 C 99.367188 91.847656 34.460938 156.753906 34.460938 236.085938 C 34.460938 315.417969 99.367188 380.324219 178.699219 380.324219 C 258.027344 380.324219 322.933594 315.417969 322.933594 236.085938 C 322.933594 156.753906 258.027344 91.847656 178.699219 91.847656 " fill-opacity="1" fill-rule="evenodd"/></g><g fill="#0288d1" fill-opacity="1"><g transform="translate(312.549247, 341.905918)"><g/></g></g><g fill="#0288d1" fill-opacity="1"><g transform="translate(328.088494, 341.905918)"><g/></g></g><g fill="#e97131" fill-opacity="1"><g transform="translate(343.61853, 341.905918)"><g><path d="M 63.605469 -17.292969 C 62.578125 -25.832031 59.902344 -31.289062 52.492188 -33.964844 C 61.960938 -36.742188 66.796875 -42.714844 66.796875 -51.667969 C 66.796875 -64.222656 57.84375 -69.265625 47.550781 -70.503906 C 43.742188 -70.914062 40.859375 -71.015625 36.433594 -71.015625 L 8.234375 -71.015625 L 8.234375 0 L 26.761719 0 L 26.761719 -26.964844 L 30.875 -26.964844 C 32.933594 -26.964844 34.683594 -26.964844 36.742188 -26.863281 C 41.476562 -26.554688 44.566406 -22.027344 45.492188 -14.203125 C 46.109375 -9.160156 47.140625 -5.042969 48.785156 0 L 68.957031 0 C 66.179688 -4.21875 64.53125 -9.261719 63.605469 -17.292969 Z M 26.761719 -40.347656 L 26.761719 -56.609375 L 33.964844 -56.609375 C 35.921875 -56.609375 37.566406 -56.609375 38.90625 -56.503906 C 43.640625 -56.09375 47.449219 -54.445312 47.449219 -48.476562 C 47.449219 -42.507812 43.125 -40.859375 38.390625 -40.449219 C 37.050781 -40.347656 35.40625 -40.347656 33.449219 -40.347656 Z M 26.761719 -40.347656 "/></g></g></g><g fill="#e97131" fill-opacity="1"><g transform="translate(411.231007, 341.905918)"><g><path d="M 62.679688 -14.410156 L 26.761719 -14.410156 L 26.761719 -28.40625 L 59.59375 -28.40625 L 59.59375 -42.816406 L 26.761719 -42.816406 L 26.761719 -56.609375 L 61.652344 -56.609375 L 61.652344 -71.015625 L 8.234375 -71.015625 L 8.234375 0 L 62.679688 0 Z M 62.679688 -14.410156 "/></g></g></g><g fill="#e97131" fill-opacity="1"><g transform="translate(474.418298, 341.905918)"><g><path d="M 33.140625 -72.457031 C 19.039062 -72.457031 6.277344 -64.738281 6.277344 -51.050781 C 6.277344 -36.847656 15.746094 -31.804688 31.90625 -27.789062 C 40.65625 -25.628906 43.332031 -22.4375 43.332031 -18.730469 C 43.332031 -14.820312 39.417969 -12.144531 34.273438 -12.144531 C 28.714844 -12.144531 23.261719 -15.027344 22.027344 -21.714844 L 3.5 -21.714844 C 4.632812 -5.765625 16.777344 1.441406 34.789062 1.441406 C 49.09375 1.441406 62.679688 -5.765625 62.679688 -19.96875 C 62.679688 -30.875 56.300781 -38.699219 40.65625 -42.40625 C 28.921875 -45.183594 25.628906 -47.960938 25.628906 -52.492188 C 25.628906 -56.8125 28.507812 -58.871094 32.730469 -58.871094 C 38.800781 -58.871094 41.890625 -54.960938 42.714844 -49.09375 L 61.238281 -49.09375 C 59.695312 -62.269531 51.875 -72.457031 33.140625 -72.457031 Z M 33.140625 -72.457031 "/></g></g></g><g fill="#e97131" fill-opacity="1"><g transform="translate(536.26773, 341.905918)"><g><path d="M 62.679688 -14.410156 L 26.761719 -14.410156 L 26.761719 -28.40625 L 59.59375 -28.40625 L 59.59375 -42.816406 L 26.761719 -42.816406 L 26.761719 -56.609375 L 61.652344 -56.609375 L 61.652344 -71.015625 L 8.234375 -71.015625 L 8.234375 0 L 62.679688 0 Z M 62.679688 -14.410156 "/></g></g></g><g fill="#e97131" fill-opacity="1"><g transform="translate(599.455008, 341.905918)"><g><path d="M 48.167969 -18.421875 L 54.136719 0 L 74.308594 0 L 48.683594 -71.015625 L 26.039062 -71.015625 L 0.410156 0 L 20.070312 0 L 26.039062 -18.421875 Z M 37.15625 -54.652344 L 43.742188 -32.832031 L 30.566406 -32.832031 Z M 37.15625 -54.652344 "/></g></g></g><g fill="#e97131" fill-opacity="1"><g transform="translate(669.64027, 341.905918)"><g><path d="M 63.605469 -17.292969 C 62.578125 -25.832031 59.902344 -31.289062 52.492188 -33.964844 C 61.960938 -36.742188 66.796875 -42.714844 66.796875 -51.667969 C 66.796875 -64.222656 57.84375 -69.265625 47.550781 -70.503906 C 43.742188 -70.914062 40.859375 -71.015625 36.433594 -71.015625 L 8.234375 -71.015625 L 8.234375 0 L 26.761719 0 L 26.761719 -26.964844 L 30.875 -26.964844 C 32.933594 -26.964844 34.683594 -26.964844 36.742188 -26.863281 C 41.476562 -26.554688 44.566406 -22.027344 45.492188 -14.203125 C 46.109375 -9.160156 47.140625 -5.042969 48.785156 0 L 68.957031 0 C 66.179688 -4.21875 64.53125 -9.261719 63.605469 -17.292969 Z M 26.761719 -40.347656 L 26.761719 -56.609375 L 33.964844 -56.609375 C 35.921875 -56.609375 37.566406 -56.609375 38.90625 -56.503906 C 43.640625 -56.09375 47.449219 -54.445312 47.449219 -48.476562 C 47.449219 -42.507812 43.125 -40.859375 38.390625 -40.449219 C 37.050781 -40.347656 35.40625 -40.347656 33.449219 -40.347656 Z M 26.761719 -40.347656 "/></g></g></g><g fill="#e97131" fill-opacity="1"><g transform="translate(737.252746, 341.905918)"><g><path d="M 40.65625 -72.457031 C 21.40625 -72.457031 5.558594 -59.695312 5.558594 -34.992188 C 5.558594 -10.910156 20.894531 1.441406 39.933594 1.441406 C 57.738281 1.441406 70.8125 -7.308594 72.5625 -24.394531 L 72.664062 -25.421875 L 54.136719 -25.421875 L 53.933594 -24.394531 C 52.386719 -16.570312 47.757812 -12.144531 40.550781 -12.144531 C 32.316406 -12.144531 24.90625 -18.21875 24.90625 -36.125 C 24.90625 -51.460938 31.597656 -58.871094 40.449219 -58.871094 C 47.960938 -58.871094 52.59375 -55.269531 54.136719 -47.652344 L 54.34375 -46.625 L 72.871094 -46.625 L 72.765625 -47.652344 C 71.324219 -61.652344 60.929688 -72.457031 40.65625 -72.457031 Z M 40.65625 -72.457031 "/></g></g></g><g fill="#e97131" fill-opacity="1"><g transform="translate(810.216632, 341.905918)"><g><path d="M 73.691406 -71.015625 L 55.167969 -71.015625 L 55.167969 -41.992188 L 26.761719 -41.992188 L 26.761719 -71.015625 L 8.234375 -71.015625 L 8.234375 0 L 26.761719 0 L 26.761719 -27.582031 L 55.167969 -27.582031 L 55.167969 0 L 73.691406 0 Z M 73.691406 -71.015625 "/></g></g></g><g fill="#d32f2f" fill-opacity="1"><g transform="translate(350.207026, 236.572893)"><g><path d="M 47.34375 -26.035156 C 49.417969 -27.113281 51.242188 -28.355469 52.816406 -29.847656 C 55.46875 -32.253906 57.460938 -35.238281 58.953125 -38.804688 C 60.445312 -42.371094 61.109375 -46.515625 61.109375 -51.160156 L 61.109375 -51.40625 C 61.109375 -55.800781 60.445312 -59.699219 59.117188 -63.179688 C 57.792969 -66.664062 55.882812 -69.566406 53.398438 -71.96875 C 50.992188 -74.375 47.925781 -76.117188 44.441406 -77.359375 C 40.960938 -78.601562 36.980469 -79.265625 32.75 -79.265625 L 21.308594 -79.265625 C 12.769531 -79.265625 3.398438 -71.222656 3.398438 -61.273438 L 3.398438 0 C 13.847656 0 22.386719 -9.785156 22.386719 -21.972656 L 22.386719 -22.636719 L 30.179688 -22.636719 L 40.460938 -7.296875 C 45.6875 0.496094 55.054688 2.320312 62.847656 -2.902344 Z M 22.386719 -60.941406 L 31.257812 -60.941406 C 34.742188 -60.941406 37.394531 -60.03125 39.300781 -58.207031 C 41.207031 -56.464844 42.203125 -53.8125 42.203125 -50.414062 L 42.203125 -50.164062 C 42.203125 -47.011719 41.207031 -44.523438 39.300781 -42.617188 C 37.394531 -40.792969 34.742188 -39.800781 31.339844 -39.800781 L 22.386719 -39.800781 Z M 22.386719 -60.941406 "/></g></g></g><g fill="#d32f2f" fill-opacity="1"><g transform="translate(413.79441, 236.572893)"><g><path d="M 21.308594 -31.011719 L 39.21875 -31.011719 L 43.28125 -48.089844 L 21.308594 -48.089844 L 21.308594 -59.863281 L 37.976562 -59.863281 C 48.171875 -59.863281 54.808594 -68.15625 54.808594 -78.273438 L 21.226562 -78.273438 C 11.277344 -78.273438 3.234375 -70.230469 3.234375 -60.363281 L 3.234375 -17.742188 C 3.234375 -8.042969 11.109375 -0.164062 20.8125 -0.164062 L 32.835938 -0.164062 C 43.03125 -0.164062 50.828125 -8.375 50.828125 -18.574219 L 21.308594 -18.574219 Z M 21.308594 -31.011719 "/></g></g></g><g fill="#d32f2f" fill-opacity="1"><g transform="translate(470.003299, 236.572893)"><g><path d="M 43.613281 -67.242188 C 42.535156 -71.390625 40.296875 -74.292969 36.648438 -76.363281 C 34.742188 -77.441406 32.585938 -78.105469 30.347656 -78.105469 C 28.023438 -78.105469 25.871094 -77.441406 23.960938 -76.363281 C 20.398438 -74.292969 18.074219 -71.390625 17.082031 -67.242188 L 0.496094 -0.664062 C 9.699219 1.574219 18.90625 -3.480469 20.976562 -11.941406 L 21.890625 -15.671875 L 22.222656 -17.496094 L 38.390625 -17.496094 L 38.722656 -15.671875 L 39.632812 -11.941406 C 41.707031 -3.480469 50.910156 1.574219 60.113281 -0.664062 Z M 25.125 -31.339844 L 30.347656 -56.214844 L 35.488281 -31.339844 Z M 25.125 -31.339844 "/></g></g></g><g fill="#d32f2f" fill-opacity="1"><g transform="translate(528.865125, 236.572893)"><g><path d="M 32.089844 -79.019531 L 21.390625 -79.019531 C 21.390625 -79.019531 21.390625 -79.019531 21.308594 -79.019531 L 19.484375 -79.019531 L 19.484375 -78.933594 C 10.28125 -78.023438 4.144531 -70.726562 4.144531 -61.9375 L 4.144531 0.332031 C 4.144531 0.332031 4.230469 0.332031 4.230469 0.332031 L 32.089844 0.332031 C 48.339844 0.332031 60.777344 -11.773438 60.777344 -26.117188 L 60.777344 -50.328125 C 60.777344 -68.570312 48.339844 -79.019531 32.089844 -79.019531 Z M 43.945312 -28.769531 C 43.945312 -22.222656 38.636719 -16.417969 32.089844 -16.417969 L 21.390625 -16.417969 C 21.390625 -16.582031 21.390625 -16.664062 21.390625 -16.832031 L 21.390625 -62.269531 L 32.089844 -62.269531 C 38.636719 -62.269531 43.945312 -56.464844 43.945312 -49.832031 Z M 43.945312 -28.769531 "/></g></g></g><g fill="#d32f2f" fill-opacity="1"><g transform="translate(592.037979, 236.572893)"><g><path d="M 49.085938 -68.074219 L 38.96875 -47.011719 L 28.769531 -68.074219 C 24.625 -76.695312 13.597656 -81.089844 4.144531 -76.53125 L 28.6875 -25.703125 L 16.664062 -0.582031 C 26.035156 3.980469 35.40625 -0.164062 39.550781 -8.789062 L 71.96875 -76.363281 C 62.519531 -80.84375 53.230469 -76.695312 49.085938 -68.074219 Z M 49.085938 -68.074219 "/></g></g></g><g fill="#38b6ff" fill-opacity="1"><g transform="translate(669.279855, 237.236696)"><g><path d="M 47.796875 -88.546875 C 28.804688 -88.546875 11.070312 -77.605469 11.070312 -57.855469 C 11.070312 -44.777344 20.753906 -38.613281 37.480469 -34.335938 C 46.539062 -31.949219 50.058594 -28.046875 50.058594 -24.148438 C 50.058594 -18.613281 44.398438 -14.839844 37.480469 -14.839844 C 30.691406 -14.839844 24.527344 -18.363281 24.527344 -26.539062 L 1.886719 -26.539062 C -0.125 -7.042969 14.085938 1.761719 35.089844 1.761719 C 55.34375 1.761719 74.335938 -8.425781 74.335938 -28.675781 C 74.335938 -39.621094 67.542969 -47.921875 51.695312 -51.820312 C 39.367188 -54.839844 35.34375 -58.109375 35.34375 -62.761719 C 35.34375 -68.800781 39.746094 -71.945312 45.65625 -71.945312 C 53.078125 -71.945312 55.972656 -67.164062 55.71875 -59.996094 L 78.359375 -59.996094 C 79.238281 -76.09375 70.6875 -88.546875 47.796875 -88.546875 Z M 47.796875 -88.546875 "/></g></g></g><g fill="#38b6ff" fill-opacity="1"><g transform="translate(744.995074, 237.236696)"><g><path d="M 25.28125 -27.921875 L 71.820312 -27.921875 C 73.203125 -32.074219 74.082031 -36.976562 74.082031 -41.128906 C 74.082031 -55.84375 64.773438 -68.925781 43.394531 -68.925781 C 20.25 -68.925781 2.640625 -52.324219 2.640625 -26.289062 C 2.640625 -5.785156 17.105469 1.761719 33.960938 1.761719 C 52.199219 1.761719 65.027344 -6.792969 70.308594 -22.011719 L 48.046875 -22.011719 C 46.285156 -16.855469 41.757812 -13.582031 35.34375 -13.582031 C 29.433594 -13.582031 25.28125 -16.980469 25.28125 -26.035156 Z M 41.507812 -53.582031 C 48.171875 -53.582031 51.066406 -49.429688 51.066406 -43.140625 C 51.066406 -42.890625 51.066406 -42.511719 50.941406 -41.757812 L 27.921875 -41.757812 C 30.816406 -49.179688 35.71875 -53.582031 41.507812 -53.582031 Z M 41.507812 -53.582031 "/></g></g></g><g fill="#38b6ff" fill-opacity="1"><g transform="translate(818.823696, 237.236696)"><g><path d="M 36.476562 -52.574219 L 51.066406 -52.574219 L 53.582031 -66.660156 L 38.992188 -66.660156 L 42.007812 -84.019531 L 19.371094 -84.019531 L 16.226562 -66.660156 L 6.164062 -66.660156 L 3.648438 -52.574219 L 13.835938 -52.574219 L 8.804688 -24.527344 C 7.671875 -18.113281 7.296875 -14.339844 7.296875 -11.195312 C 7.296875 -2.515625 12.199219 1.761719 25.910156 1.761719 C 31.445312 1.761719 36.347656 1.257812 41.632812 0.125 L 44.148438 -14.085938 C 35.089844 -12.953125 31.191406 -14.339844 31.191406 -20.125 C 31.191406 -22.515625 31.445312 -24.402344 32.074219 -27.796875 Z M 36.476562 -52.574219 "/></g></g></g></svg>